# xmcd CD database file
#
# Track frame offsets:
#	150
#	14123
#	26445
#	38959
#	53027
#	65970
#	76427
#	92241
#	104543
#	116112
#	127444
#
# Disc length: 1831 seconds
#
# Revision: 0
# Processed by: cddbd v1.5.1PL2 Copyright (c) Steve Scherf et al.
# Submitted via: CDex 1.40Beta9
#
DISCID=a607250b
DTITLE=Gary Revel - Deep Mountain Lake
DYEAR=2005
DGENRE=Country
TTITLE0=An Old Frame House
TTITLE1=Deep Mountain Lake
TTITLE2=I Know - Artist Dale Tuttle
TTITLE3=In My Dreams
TTITLE4=Just As Long As We're Together
TTITLE5=Land Of Make Believe
TTITLE6=Little Did We Know
TTITLE7=Mother Nature
TTITLE8=My Baby's Gonna Leave
TTITLE9=Peanut Man
TTITLE10=They Slew The Dreamer
EXTD=YEAR: 2005 ID3G: 2
EXTT0=
EXTT1=
EXTT2=
EXTT3=
EXTT4=
EXTT5=
EXTT6=
EXTT7=
EXTT8=
EXTT9=
EXTT10=
PLAYORDER=
